<?xml version="1.0" encoding="utf-8"?>
<!-- Generator: Adobe Illustrator 25.2.1, SVG Export Plug-In . SVG Version: 6.00 Build 0)  -->
<svg version="1.0" id="Calque_1" xmlns="http://www.w3.org/2000/svg" xmlns:xlink="http://www.w3.org/1999/xlink" x="0px" y="0px"
	 viewBox="0 0 300 300" style="enable-background:new 0 0 300 300;" xml:space="preserve">
<style type="text/css">
	.st0{fill:#87C01A;}
	.st1{fill:#6E3C19;}
	.st2{fill:#6E3C19;stroke:#6E3C19;stroke-width:0.25;stroke-miterlimit:10;}
	.st3{fill:#86BF1A;}
	.st4{fill:#87BF19;}
	.st5{fill:#6E3C19;stroke:#6E3C19;stroke-width:2;stroke-miterlimit:10;}
	.st6{fill:none;stroke:#6E3C19;stroke-width:5;stroke-linecap:round;stroke-linejoin:round;stroke-miterlimit:10;}
</style>
<g>
	<g>
		<path class="st0" d="M75.8,109.9h4.8c1.2,0,2.3,0.1,3.2,0.3s1.7,0.7,2.4,1.3c1.9,1.6,2.8,4.1,2.8,7.4c0,1.1-0.1,2.1-0.3,3
			c-0.2,0.9-0.5,1.7-0.9,2.4s-0.9,1.4-1.5,1.9c-0.5,0.4-1,0.8-1.6,1.1c-0.6,0.3-1.2,0.5-1.9,0.6c-0.7,0.1-1.4,0.2-2.3,0.2h-4.8
			c-0.7,0-1.2-0.1-1.5-0.3c-0.3-0.2-0.6-0.5-0.7-0.9c-0.1-0.4-0.2-0.8-0.2-1.4v-13.3c0-0.8,0.2-1.4,0.5-1.7S75,109.9,75.8,109.9z
			 M77.2,112.8v12.4H80c0.6,0,1.1,0,1.4,0c0.3,0,0.7-0.1,1.1-0.2c0.4-0.1,0.7-0.3,1-0.6c1.2-1,1.8-2.8,1.8-5.4c0-1.8-0.3-3.1-0.8-4
			c-0.5-0.9-1.2-1.5-2-1.7s-1.8-0.4-2.9-0.4H77.2z"/>
		<path class="st0" d="M100.7,126.5c-0.8,0.6-1.6,1.1-2.4,1.4c-0.8,0.3-1.6,0.5-2.6,0.5c-0.9,0-1.6-0.2-2.3-0.5
			c-0.7-0.3-1.2-0.8-1.5-1.4c-0.4-0.6-0.5-1.2-0.5-1.9c0-0.9,0.3-1.7,0.9-2.4c0.6-0.7,1.4-1.1,2.4-1.3c0.2,0,0.7-0.2,1.6-0.3
			c0.9-0.2,1.6-0.3,2.2-0.5c0.6-0.1,1.3-0.3,2-0.5c0-0.9-0.2-1.5-0.5-2s-1-0.6-2-0.6c-0.9,0-1.5,0.1-1.9,0.4
			c-0.4,0.2-0.8,0.6-1.1,1.1c-0.3,0.5-0.5,0.8-0.7,0.9c-0.1,0.2-0.4,0.2-0.8,0.2c-0.4,0-0.7-0.1-1-0.4c-0.3-0.2-0.4-0.6-0.4-0.9
			c0-0.6,0.2-1.2,0.6-1.7c0.4-0.6,1.1-1,2-1.4s2-0.5,3.3-0.5c1.5,0,2.7,0.2,3.5,0.5c0.9,0.4,1.5,0.9,1.8,1.7c0.4,0.8,0.5,1.8,0.5,3
			c0,0.8,0,1.5,0,2c0,0.6,0,1.2,0,1.8c0,0.6,0.1,1.3,0.3,2c0.2,0.7,0.3,1.1,0.3,1.3c0,0.3-0.2,0.7-0.5,0.9c-0.3,0.3-0.7,0.4-1.1,0.4
			c-0.3,0-0.7-0.2-1-0.5C101.5,127.6,101.1,127.1,100.7,126.5z M100.5,121.6c-0.5,0.2-1.2,0.4-2.2,0.6c-0.9,0.2-1.6,0.4-2,0.4
			c-0.4,0.1-0.7,0.3-1,0.6c-0.3,0.3-0.5,0.7-0.5,1.2c0,0.5,0.2,0.9,0.6,1.3c0.4,0.4,0.9,0.5,1.5,0.5c0.7,0,1.3-0.1,1.9-0.4
			c0.6-0.3,1-0.7,1.2-1.1c0.3-0.5,0.5-1.4,0.5-2.5V121.6z"/>
		<path class="st0" d="M110.2,128.8l0.3-0.8l-4.2-10.5c-0.3-0.6-0.4-1-0.4-1.3c0-0.3,0.1-0.6,0.2-0.8c0.1-0.2,0.4-0.4,0.6-0.6
			c0.3-0.1,0.5-0.2,0.8-0.2c0.5,0,0.9,0.2,1.1,0.5c0.2,0.3,0.5,0.8,0.7,1.3l2.9,8.3l2.7-7.8c0.2-0.6,0.4-1.1,0.6-1.5
			s0.4-0.6,0.6-0.7c0.2-0.1,0.5-0.2,0.8-0.2c0.3,0,0.5,0.1,0.7,0.2s0.4,0.3,0.5,0.6c0.1,0.2,0.2,0.5,0.2,0.7c0,0.2-0.1,0.4-0.2,0.7
			c-0.1,0.3-0.2,0.6-0.3,0.9l-4.4,11.6c-0.4,1-0.8,1.8-1.1,2.4c-0.4,0.6-0.8,1-1.4,1.3c-0.6,0.3-1.4,0.5-2.4,0.5
			c-1,0-1.7-0.1-2.2-0.3c-0.5-0.2-0.7-0.6-0.7-1.2c0-0.4,0.1-0.7,0.4-0.9c0.2-0.2,0.6-0.3,1-0.3c0.2,0,0.4,0,0.5,0.1
			c0.2,0,0.4,0.1,0.6,0.1c0.4,0,0.7-0.1,0.9-0.2c0.2-0.1,0.4-0.3,0.6-0.6C109.8,129.8,110,129.4,110.2,128.8z"/>
		<path class="st0" d="M121,126.4v-14.7c0-0.7,0.2-1.2,0.5-1.5c0.3-0.3,0.7-0.5,1.2-0.5s0.9,0.2,1.2,0.5c0.3,0.3,0.5,0.9,0.5,1.5
			v14.7c0,0.7-0.2,1.2-0.5,1.5s-0.7,0.5-1.2,0.5c-0.5,0-0.9-0.2-1.2-0.5C121.1,127.5,121,127,121,126.4z"/>
		<path class="st0" d="M129.7,113.1c-0.5,0-0.9-0.1-1.2-0.4s-0.5-0.7-0.5-1.2c0-0.5,0.2-0.9,0.5-1.2c0.3-0.3,0.7-0.5,1.2-0.5
			c0.4,0,0.8,0.1,1.2,0.4s0.5,0.7,0.5,1.2c0,0.5-0.2,0.9-0.5,1.2C130.6,112.9,130.2,113.1,129.7,113.1z M131.4,116.6v9.8
			c0,0.7-0.2,1.2-0.5,1.5s-0.7,0.5-1.2,0.5c-0.5,0-0.9-0.2-1.2-0.5c-0.3-0.4-0.5-0.9-0.5-1.5v-9.7c0-0.7,0.2-1.2,0.5-1.5
			c0.3-0.3,0.7-0.5,1.2-0.5c0.5,0,0.9,0.2,1.2,0.5C131.2,115.5,131.4,116,131.4,116.6z"/>
		<path class="st0" d="M147.2,124.2c0,0.4-0.1,0.9-0.4,1.4c-0.3,0.5-0.6,0.9-1.2,1.4c-0.5,0.4-1.2,0.8-2,1c-0.8,0.3-1.7,0.4-2.7,0.4
			c-2.1,0-3.7-0.6-4.9-1.8c-1.2-1.2-1.8-2.9-1.8-4.9c0-1.4,0.3-2.6,0.8-3.7s1.3-1.9,2.3-2.5c1-0.6,2.2-0.9,3.6-0.9
			c0.9,0,1.7,0.1,2.4,0.4s1.4,0.6,1.9,1s0.9,0.8,1.2,1.3c0.3,0.5,0.4,0.9,0.4,1.3c0,0.4-0.2,0.7-0.5,1c-0.3,0.3-0.7,0.4-1.1,0.4
			c-0.3,0-0.5-0.1-0.7-0.2c-0.2-0.1-0.4-0.4-0.6-0.7c-0.4-0.6-0.8-1.1-1.3-1.4c-0.5-0.3-1-0.5-1.7-0.5c-1,0-1.8,0.4-2.4,1.2
			s-0.9,1.9-0.9,3.2c0,0.6,0.1,1.2,0.2,1.8c0.2,0.5,0.4,1,0.7,1.4c0.3,0.4,0.7,0.7,1.1,0.9c0.4,0.2,0.9,0.3,1.4,0.3
			c0.7,0,1.3-0.2,1.7-0.5c0.5-0.3,0.9-0.8,1.3-1.4c0.2-0.4,0.4-0.7,0.7-0.9c0.2-0.2,0.5-0.3,0.9-0.3c0.4,0,0.8,0.2,1,0.5
			S147.2,123.9,147.2,124.2z"/>
		<path class="st0" d="M159.7,122.4h-6.6c0,0.8,0.2,1.4,0.5,2c0.3,0.6,0.7,1,1.2,1.3c0.5,0.3,1.1,0.4,1.7,0.4c0.4,0,0.8,0,1.1-0.1
			s0.7-0.2,1-0.4c0.3-0.2,0.6-0.4,0.9-0.7s0.6-0.5,1-0.9c0.2-0.1,0.4-0.2,0.7-0.2c0.3,0,0.6,0.1,0.8,0.3s0.3,0.5,0.3,0.8
			c0,0.3-0.1,0.7-0.4,1.1c-0.2,0.4-0.6,0.8-1.1,1.2c-0.5,0.4-1.1,0.7-1.8,0.9s-1.6,0.4-2.5,0.4c-2.2,0-3.9-0.6-5.1-1.9
			c-1.2-1.2-1.8-2.9-1.8-5.1c0-1,0.1-1.9,0.4-2.8s0.7-1.6,1.3-2.2c0.6-0.6,1.3-1.1,2.1-1.4c0.8-0.3,1.8-0.5,2.8-0.5
			c1.3,0,2.5,0.3,3.4,0.8c0.9,0.6,1.7,1.3,2.1,2.2c0.5,0.9,0.7,1.8,0.7,2.7c0,0.9-0.2,1.4-0.7,1.7S160.6,122.4,159.7,122.4z
			 M153.1,120.4h6.1c-0.1-1.2-0.4-2-0.9-2.6c-0.5-0.6-1.3-0.9-2.1-0.9c-0.8,0-1.5,0.3-2.1,0.9C153.5,118.4,153.2,119.3,153.1,120.4z
			"/>
		<path class="st1" d="M187.7,122.4c0,0.6-0.1,1.2-0.4,1.9c-0.3,0.7-0.7,1.3-1.3,2s-1.4,1.2-2.3,1.6s-2.1,0.6-3.3,0.6
			c-1,0-1.8-0.1-2.6-0.3c-0.8-0.2-1.5-0.5-2.1-0.9c-0.6-0.4-1.2-0.9-1.8-1.5c-0.5-0.6-0.9-1.2-1.2-1.9s-0.6-1.5-0.8-2.3
			c-0.2-0.8-0.3-1.7-0.3-2.6c0-1.5,0.2-2.8,0.6-3.9c0.4-1.2,1-2.1,1.8-3c0.8-0.8,1.7-1.5,2.8-1.9c1.1-0.4,2.2-0.6,3.4-0.6
			c1.5,0,2.8,0.3,3.9,0.9s2,1.3,2.6,2.2c0.6,0.9,0.9,1.7,0.9,2.5c0,0.4-0.1,0.8-0.4,1.1s-0.7,0.5-1.1,0.5c-0.5,0-0.8-0.1-1.1-0.3
			s-0.5-0.6-0.8-1.2c-0.5-0.9-1-1.6-1.7-2c-0.6-0.4-1.5-0.7-2.4-0.7c-1.5,0-2.7,0.6-3.6,1.7c-0.9,1.2-1.3,2.8-1.3,4.9
			c0,1.4,0.2,2.6,0.6,3.5c0.4,0.9,1,1.6,1.7,2.1c0.7,0.5,1.6,0.7,2.6,0.7c1.1,0,2-0.3,2.7-0.8s1.3-1.3,1.7-2.3
			c0.2-0.5,0.4-0.9,0.6-1.2c0.2-0.3,0.6-0.5,1.1-0.5c0.4,0,0.8,0.2,1.1,0.5S187.7,121.9,187.7,122.4z"/>
		<path class="st1" d="M199.5,126.5c-0.8,0.6-1.6,1.1-2.4,1.4c-0.8,0.3-1.6,0.5-2.6,0.5c-0.9,0-1.6-0.2-2.3-0.5s-1.2-0.8-1.5-1.4
			c-0.4-0.6-0.5-1.2-0.5-1.9c0-0.9,0.3-1.7,0.9-2.4c0.6-0.7,1.4-1.1,2.4-1.3c0.2,0,0.7-0.2,1.6-0.3s1.6-0.3,2.2-0.5s1.3-0.3,2-0.5
			c0-0.9-0.2-1.5-0.5-2s-1-0.6-2-0.6c-0.9,0-1.5,0.1-1.9,0.4c-0.4,0.2-0.8,0.6-1.1,1.1c-0.3,0.5-0.5,0.8-0.7,0.9
			c-0.1,0.2-0.4,0.2-0.8,0.2c-0.4,0-0.7-0.1-1-0.4s-0.4-0.6-0.4-0.9c0-0.6,0.2-1.2,0.6-1.7c0.4-0.6,1.1-1,2-1.4
			c0.9-0.4,2-0.5,3.3-0.5c1.5,0,2.7,0.2,3.5,0.5c0.9,0.4,1.5,0.9,1.8,1.7c0.4,0.8,0.5,1.8,0.5,3c0,0.8,0,1.5,0,2c0,0.6,0,1.2,0,1.8
			c0,0.6,0.1,1.3,0.3,2c0.2,0.7,0.3,1.1,0.3,1.3c0,0.3-0.2,0.7-0.5,0.9c-0.3,0.3-0.7,0.4-1.1,0.4c-0.3,0-0.7-0.2-1-0.5
			C200.2,127.6,199.9,127.1,199.5,126.5z M199.3,121.6c-0.5,0.2-1.2,0.4-2.2,0.6c-0.9,0.2-1.6,0.4-2,0.4c-0.4,0.1-0.7,0.3-1,0.6
			c-0.3,0.3-0.5,0.7-0.5,1.2c0,0.5,0.2,0.9,0.6,1.3c0.4,0.4,0.9,0.5,1.5,0.5c0.7,0,1.3-0.1,1.9-0.4s1-0.7,1.2-1.1
			c0.3-0.5,0.5-1.4,0.5-2.5V121.6z"/>
		<path class="st1" d="M205.9,114.9h0.8v-1c0-1.1,0.1-1.9,0.4-2.5s0.7-1.1,1.4-1.4c0.6-0.3,1.5-0.4,2.6-0.4c2,0,3,0.5,3,1.5
			c0,0.3-0.1,0.6-0.3,0.8c-0.2,0.2-0.5,0.3-0.7,0.3c-0.1,0-0.4,0-0.7-0.1s-0.6-0.1-0.8-0.1c-0.6,0-1,0.2-1.2,0.5
			c-0.2,0.4-0.3,0.9-0.3,1.5v0.8h0.8c1.3,0,1.9,0.4,1.9,1.2c0,0.6-0.2,0.9-0.5,1.1s-0.8,0.2-1.4,0.2h-0.8v9c0,0.7-0.2,1.2-0.5,1.5
			s-0.7,0.5-1.2,0.5c-0.5,0-0.9-0.2-1.2-0.5s-0.5-0.9-0.5-1.5v-9h-0.9c-0.5,0-0.9-0.1-1.2-0.3c-0.3-0.2-0.4-0.5-0.4-0.9
			C204.2,115.3,204.7,114.9,205.9,114.9z"/>
		<path class="st1" d="M224.2,122.4h-6.6c0,0.8,0.2,1.4,0.5,2c0.3,0.6,0.7,1,1.2,1.3c0.5,0.3,1.1,0.4,1.7,0.4c0.4,0,0.8,0,1.1-0.1
			s0.7-0.2,1-0.4c0.3-0.2,0.6-0.4,0.9-0.7s0.6-0.5,1-0.9c0.2-0.1,0.4-0.2,0.7-0.2c0.3,0,0.6,0.1,0.8,0.3s0.3,0.5,0.3,0.8
			c0,0.3-0.1,0.7-0.4,1.1c-0.2,0.4-0.6,0.8-1.1,1.2c-0.5,0.4-1.1,0.7-1.8,0.9s-1.6,0.4-2.5,0.4c-2.2,0-3.9-0.6-5.1-1.9
			c-1.2-1.2-1.8-2.9-1.8-5.1c0-1,0.1-1.9,0.4-2.8s0.7-1.6,1.3-2.2c0.6-0.6,1.3-1.1,2.1-1.4c0.8-0.3,1.8-0.5,2.8-0.5
			c1.3,0,2.5,0.3,3.4,0.8c0.9,0.6,1.7,1.3,2.1,2.2c0.5,0.9,0.7,1.8,0.7,2.7c0,0.9-0.2,1.4-0.7,1.7S225.1,122.4,224.2,122.4z
			 M217.6,120.4h6.1c-0.1-1.2-0.4-2-0.9-2.6c-0.5-0.6-1.3-0.9-2.1-0.9c-0.8,0-1.5,0.3-2.1,0.9C218,118.4,217.7,119.3,217.6,120.4z
			 M221,109.8h1.7c0.4,0,0.6,0.1,0.6,0.2c0,0.1-0.2,0.3-0.7,0.8c-0.5,0.5-0.9,0.9-1.4,1.4s-0.8,0.7-1,0.8c-0.5,0.2-1,0.4-1.5,0.4
			c-0.4,0-0.5-0.1-0.5-0.3c0-0.1,0.1-0.4,0.3-0.7l0.6-1c0.3-0.6,0.6-1,0.8-1.2C220.2,109.8,220.6,109.8,221,109.8z"/>
	</g>
	<g>
		<g>
			<path class="st2" d="M134.9,146.3c-0.3-0.2-0.5-0.6-0.5-1.1c0-0.1,0.1-0.2,0.2-0.2c0.1,0,0.2,0,0.5,0.1c0.2,0.1,0.6,0.1,1.2,0.1
				c1.3,0,2.4-0.2,3.5-0.5c1-0.4,1.9-0.8,2.4-1.4c0.6-0.6,0.9-1.2,0.9-1.8c0-0.8-0.4-1.3-1.2-1.6c-0.8-0.3-1.9-0.4-3.1-0.4l-1.2,0
				c-0.2,0.6-0.3,1.1-0.4,1.6c-0.1,0.5-0.2,0.9-0.3,1.3c-0.3,1.2-0.6,2-0.7,2.5c-0.3,0-0.6-0.1-0.9-0.3c-0.2-0.2-0.4-0.4-0.4-0.7
				c0-0.2,0.1-0.5,0.2-0.8l0.1-0.2l0.2-0.7c1.2-3.9,2.3-6.7,3.2-8.4c-0.6,0.1-1.1,0.3-1.7,0.7c-0.1,0-0.1,0.1-0.2,0.1
				c-0.1,0.1-0.2,0.1-0.2,0.1c-0.1,0-0.3-0.1-0.4-0.2s-0.3-0.3-0.3-0.4c0.8-0.3,1.5-0.5,2.1-0.7c0.6-0.2,1.3-0.2,2.2-0.2
				c1.1,0,2.1,0.2,2.9,0.6c0.9,0.4,1.3,1.1,1.3,2.2c0,0.9-0.3,1.6-1,2.1c-0.7,0.5-1.5,0.9-2.5,1.1c1.3,0.2,2.2,0.5,2.8,1
				c0.6,0.5,0.9,1.1,0.9,1.7c0,1-0.4,1.9-1.3,2.7c-0.8,0.8-1.9,1.3-3.1,1.7c-1.2,0.4-2.3,0.6-3.3,0.6
				C135.8,146.6,135.3,146.5,134.9,146.3z M141.3,138c1-0.5,1.5-1.3,1.5-2.3c0-1.3-1.1-2-3.2-2c-0.6,1.2-1.3,2.9-1.9,5.2
				C139.1,138.7,140.3,138.5,141.3,138z"/>
			<path class="st2" d="M145.9,145.6c-0.3-0.3-0.4-0.6-0.4-1.1c0-0.7,0.2-1.4,0.7-2.2c0.5-0.8,1.1-1.5,1.8-2.1
				c0.7-0.6,1.5-0.8,2.2-0.8c0.5,0,0.9,0.1,1.2,0.4c0.3,0.3,0.5,0.6,0.5,1c0,0.5-0.3,0.8-1,0.8c0.4,0.1,0.6,0.3,0.6,0.5
				c0,0.1,0,0.2-0.1,0.4c-0.1,0.2-0.2,0.3-0.3,0.5c-0.2,0.3-0.3,0.5-0.4,0.8c-0.1,0.2-0.2,0.4-0.2,0.6c0,0.2,0,0.3,0.1,0.4
				c0.1,0.1,0.2,0.2,0.4,0.2c0.3,0,0.7-0.2,1.2-0.7c0.5-0.4,1-1.1,1.4-2l0.3,0.3c-0.4,0.9-0.9,1.7-1.5,2.2c-0.6,0.6-1.2,0.8-1.9,0.8
				c-0.4,0-0.8-0.1-1-0.4c-0.2-0.3-0.4-0.6-0.4-1c-0.5,0.6-0.9,1-1.3,1.3c-0.4,0.3-0.7,0.4-1.1,0.4
				C146.5,145.9,146.1,145.8,145.9,145.6z M148.6,144.2c0.5-0.6,1.1-1.3,1.8-2.2l0.3-0.5c0-0.1,0.1-0.1,0.1-0.1l0.1,0
				c0.1-0.2,0.1-0.4,0.1-0.6c0-0.6-0.2-0.9-0.7-0.9c-0.5,0-1,0.3-1.5,0.8c-0.5,0.5-1,1.2-1.4,1.9c-0.4,0.7-0.5,1.4-0.5,1.9
				c0,0.2,0,0.3,0.1,0.4c0.1,0.1,0.2,0.1,0.3,0.1C147.6,145.1,148.1,144.8,148.6,144.2z"/>
			<path class="st2" d="M156.8,145.3c-0.3-0.2-0.4-0.5-0.4-0.9c0-0.2,0-0.4,0.1-0.7c0.1-0.3,0.2-0.6,0.4-0.9
				c0.1-0.3,0.3-0.6,0.3-0.8s0.1-0.4,0.1-0.6c0-0.4-0.3-0.8-0.8-1.1c-0.2,0.6-0.5,1.1-0.8,1.7c-0.3,0.6-0.6,1.1-0.8,1.4l-0.3-0.5
				c0.5-0.9,1-1.9,1.4-3c-0.1-0.1-0.2-0.3-0.2-0.5c0-0.3,0.1-0.6,0.3-0.8c0.2-0.3,0.4-0.4,0.5-0.4c0.1,0,0.2,0.1,0.3,0.2
				c0.1,0.1,0.1,0.2,0.1,0.3c0,0,0,0.1-0.1,0.3c-0.1,0.2-0.1,0.3-0.1,0.3c0,0.1,0.1,0.2,0.1,0.2c0.1,0.1,0.2,0.2,0.4,0.3
				c0.4,0.3,0.7,0.5,0.9,0.7c0.2,0.2,0.3,0.6,0.3,1c0,0.2,0,0.5-0.1,0.7c-0.1,0.2-0.2,0.5-0.4,0.9c-0.2,0.5-0.4,0.8-0.4,1.1
				c0,0.3,0.1,0.4,0.4,0.4c0.3,0,0.7-0.1,1.1-0.4c0.4-0.3,0.8-0.6,1.1-1c0.3-0.4,0.6-0.7,0.7-1.1l0.4,0.3c-0.2,0.5-0.5,1-0.9,1.4
				c-0.4,0.5-0.9,0.8-1.4,1.1c-0.5,0.3-1,0.4-1.5,0.4C157.4,145.6,157,145.5,156.8,145.3z"/>
			<path class="st2" d="M168,145.3c-0.4-0.4-0.6-0.9-0.6-1.5c0-0.7,0.2-1.4,0.7-2.1s1-1.4,1.7-1.9c0.7-0.5,1.4-0.8,2-0.8
				c0.3,0,0.6,0.1,0.9,0.3c0.2,0.2,0.4,0.5,0.4,0.9c0,0.5-0.2,1-0.6,1.5c-0.4,0.5-1,0.9-1.6,1.2c-0.7,0.3-1.3,0.5-2,0.6
				c0,0.1,0,0.2,0,0.4c0,0.3,0.1,0.6,0.2,0.9c0.2,0.3,0.5,0.4,1.1,0.4c0.7,0,1.4-0.3,2.1-0.8c0.7-0.6,1.3-1.2,1.7-2.1l0.3,0.3
				c-0.4,1-1.1,1.8-1.9,2.4s-1.7,0.9-2.6,0.9C168.9,145.9,168.4,145.7,168,145.3z M170.3,142.4c0.5-0.3,0.9-0.6,1.3-1
				c0.3-0.4,0.5-0.8,0.5-1.2c0-0.1,0-0.2-0.1-0.3c0,0-0.1-0.1-0.2-0.1c-0.3,0-0.7,0.2-1.1,0.5c-0.4,0.3-0.7,0.7-1.1,1.2
				c-0.3,0.5-0.6,0.9-0.7,1.4C169.3,142.8,169.8,142.6,170.3,142.4z"/>
			<path class="st2" d="M175,145.5c-0.3-0.3-0.4-0.7-0.4-1.3c0-0.4,0.1-1,0.3-1.7c0.2-0.7,0.4-1.4,0.7-2.2c-0.3-0.1-0.5-0.1-0.6-0.2
				v-0.5c0.3,0,0.5,0.1,0.8,0.1c0.5-1.3,1-2.4,1.6-3.3c0.6-0.9,1-1.4,1.4-1.4c0.1,0,0.2,0,0.3,0.1c0.1,0.1,0.1,0.2,0.1,0.4
				c0,0.2-0.1,0.4-0.2,0.7c-0.2,0.3-0.4,0.8-0.8,1.4c-0.5,0.8-0.9,1.5-1.2,2.1c1.3,0,2.3,0,3.1-0.1v0.6c-1.3,0.1-2.5,0.2-3.4,0.2
				c-0.6,1.4-0.9,2.5-0.9,3.4c0,0.5,0.1,0.8,0.2,1c0.1,0.2,0.4,0.3,0.7,0.3c0.6,0,1.1-0.3,1.7-0.8c0.6-0.5,1.1-1.2,1.5-2.1l0.2,0.2
				c-0.5,1-1.1,1.9-1.8,2.6c-0.7,0.7-1.5,1-2.3,1C175.7,145.9,175.3,145.8,175,145.5z"/>
			<path class="st2" d="M186.7,145.3c-0.4-0.5-0.6-1-0.6-1.6c0-0.4,0.1-0.7,0.2-0.9c0.2-0.2,0.3-0.3,0.5-0.4
				c0.2-0.1,0.3-0.2,0.3-0.2c0.7-0.7,1.3-1.5,1.6-2.3v-0.2c0-0.4,0.1-0.7,0.2-0.9c0.1-0.2,0.3-0.3,0.5-0.3c0.2,0,0.4,0.1,0.4,0.3
				c0,0.1,0,0.1,0,0.3c0,0.1,0,0.2,0,0.4c0,0.2,0,0.4,0.1,0.7c0.1,0.2,0.2,0.6,0.3,1c0.2,0.5,0.3,0.9,0.4,1.3
				c0.1,0.4,0.1,0.7,0.1,1.1c0,0.2,0,0.4-0.1,0.7c0.8-0.2,1.4-0.8,2-1.9l0.2,0.2c-0.2,0.6-0.5,1.2-0.9,1.5c-0.4,0.4-0.9,0.6-1.4,0.7
				c-0.2,0.4-0.5,0.8-0.9,1c-0.4,0.2-0.9,0.3-1.4,0.3C187.6,146,187,145.8,186.7,145.3z M188.9,145.1c0.2-0.1,0.3-0.3,0.4-0.5
				c-0.4-0.1-0.8-0.3-1.2-0.5c-0.4-0.3-0.7-0.5-0.9-0.8c-0.2,0-0.2,0.2-0.2,0.5c0,0.4,0.1,0.8,0.3,1.1s0.5,0.5,0.9,0.5
				C188.5,145.3,188.7,145.2,188.9,145.1z M189.5,143.6c0-0.4-0.1-0.7-0.1-1.1c-0.1-0.3-0.2-0.8-0.3-1.3l-0.2-0.6
				c-0.6,1-1,1.7-1.5,2.1c0.2,0.3,0.5,0.6,0.8,0.9c0.3,0.3,0.7,0.4,1.2,0.5C189.5,144,189.5,143.8,189.5,143.6z"/>
			<path class="st2" d="M198.3,145.2c-0.2-0.2-0.4-0.5-0.4-0.8c0-0.1,0-0.3,0.1-0.5c0.1-0.2,0.1-0.4,0.2-0.6
				c0.2-0.5,0.2-0.9,0.2-1.1c0-0.2-0.1-0.4-0.2-0.5c-0.1-0.1-0.3-0.2-0.4-0.2c-0.6,0-1.2,0.4-1.8,1.1c-0.6,0.7-1.3,1.7-2,2.8
				c-0.5,0-0.8-0.2-1.1-0.5l0.2-0.4c0.7-1.6,1-2.8,1-3.6c0.1-0.1,0.2-0.2,0.4-0.3c0.2-0.1,0.3-0.1,0.5-0.1c0.2,0,0.3,0,0.4,0.1
				c0.1,0.1,0.2,0.2,0.2,0.4c0,0.3-0.1,0.8-0.3,1.5c0.5-0.7,1-1.2,1.6-1.6c0.5-0.4,1.1-0.6,1.6-0.6c0.4,0,0.8,0.2,1,0.5
				c0.2,0.3,0.4,0.7,0.4,1.1c0,0.2,0,0.5-0.1,0.7c-0.1,0.2-0.2,0.5-0.3,0.8c-0.2,0.5-0.3,0.8-0.3,1.1c0,0.2,0,0.3,0.1,0.4
				c0.1,0.1,0.2,0.1,0.3,0.1c0.4,0,0.8-0.3,1.2-0.8c0.4-0.5,0.8-1.1,1.2-1.8l0.3,0.2c-0.4,0.9-0.9,1.7-1.3,2.2
				c-0.5,0.5-1,0.8-1.7,0.8C198.8,145.5,198.5,145.4,198.3,145.2z"/>
			<path class="st2" d="M202.8,145.6c-0.3-0.3-0.4-0.6-0.4-1.1c0-0.7,0.2-1.4,0.7-2.2c0.5-0.8,1.1-1.5,1.8-2.1
				c0.7-0.6,1.5-0.8,2.2-0.8c0.5,0,0.9,0.1,1.2,0.4c0.3,0.3,0.5,0.6,0.5,1c0,0.5-0.3,0.8-1,0.8c0.4,0.1,0.6,0.3,0.6,0.5
				c0,0.1,0,0.2-0.1,0.4c-0.1,0.2-0.2,0.3-0.3,0.5c-0.2,0.3-0.3,0.5-0.4,0.8c-0.1,0.2-0.2,0.4-0.2,0.6c0,0.2,0,0.3,0.1,0.4
				c0.1,0.1,0.2,0.2,0.4,0.2c0.3,0,0.7-0.2,1.2-0.7c0.5-0.4,1-1.1,1.4-2l0.3,0.3c-0.4,0.9-0.9,1.7-1.5,2.2c-0.6,0.6-1.2,0.8-1.9,0.8
				c-0.4,0-0.8-0.1-1-0.4c-0.2-0.3-0.4-0.6-0.4-1c-0.5,0.6-0.9,1-1.3,1.3c-0.4,0.3-0.7,0.4-1.1,0.4
				C203.4,145.9,203,145.8,202.8,145.6z M205.5,144.2c0.5-0.6,1.1-1.3,1.8-2.2l0.3-0.5c0-0.1,0.1-0.1,0.1-0.1l0.1,0
				c0.1-0.2,0.1-0.4,0.1-0.6c0-0.6-0.2-0.9-0.7-0.9c-0.5,0-1,0.3-1.5,0.8c-0.5,0.5-1,1.2-1.4,1.9c-0.4,0.7-0.5,1.4-0.5,1.9
				c0,0.2,0,0.3,0.1,0.4c0.1,0.1,0.2,0.1,0.3,0.1C204.5,145.1,205,144.8,205.5,144.2z"/>
			<path class="st2" d="M212,145.5c-0.4-0.4-0.5-0.9-0.5-1.7c0-0.7,0.2-1.4,0.5-2.1c0.4-0.7,0.8-1.2,1.4-1.7
				c0.6-0.4,1.2-0.6,1.8-0.6c0.4,0,0.8,0.1,1,0.3c0.2,0.2,0.3,0.5,0.3,0.8c0,0.3-0.1,0.6-0.2,0.9c-0.2,0.3-0.4,0.4-0.6,0.4
				c-0.2,0-0.4-0.1-0.5-0.3c0.1-0.1,0.3-0.2,0.4-0.5c0.1-0.2,0.2-0.5,0.2-0.8c0-0.2-0.1-0.3-0.3-0.3c-0.4,0-0.7,0.2-1.2,0.6
				c-0.4,0.4-0.8,0.9-1,1.5c-0.3,0.6-0.4,1.2-0.4,1.6c0,0.4,0.1,0.7,0.3,0.9c0.2,0.2,0.5,0.4,0.9,0.4c0.4,0,0.9-0.1,1.3-0.4
				c0.5-0.2,0.9-0.6,1.3-1.1c0.4-0.5,0.7-1,1-1.6l0.3,0.3c-0.3,0.7-0.6,1.3-1.1,1.8c-0.5,0.5-1,1-1.6,1.3c-0.6,0.3-1.2,0.5-1.7,0.5
				C212.9,146.1,212.4,145.9,212,145.5z"/>
			<path class="st2" d="M222.7,145.3c-0.3-0.4-0.5-0.8-0.7-1.3c-0.1-0.5-0.2-0.9-0.2-1.3c1.4-0.3,2.2-0.8,2.2-1.5
				c0-0.2-0.1-0.4-0.2-0.5c-0.1-0.1-0.3-0.2-0.5-0.2c-0.7,0-1.3,0.4-1.8,1.3c-0.5,0.9-1,1.9-1.4,3c-0.1,0.3-0.2,0.6-0.4,0.7
				c-0.1,0.1-0.3,0.2-0.5,0.2c-0.2,0-0.3-0.1-0.5-0.2c-0.1-0.2-0.2-0.5-0.2-1c0-1.3,0.3-2.8,1-4.6c0.7-1.8,1.4-3.3,2.3-4.7
				c0.9-1.3,1.5-2,2-2c0.2,0,0.4,0.1,0.5,0.4c0.1,0.2,0.2,0.5,0.2,0.9c0,0.5-0.1,1.1-0.4,1.7c-0.3,0.7-0.7,1.3-1.2,1.9
				c-0.5,0.6-1.1,1.1-1.8,1.5c-0.3,0.7-0.5,1.4-0.7,2.1c-0.2,0.7-0.3,1.4-0.3,1.9c1.2-2.8,2.5-4.2,3.7-4.2c0.4,0,0.8,0.2,1.2,0.5
				c0.3,0.3,0.5,0.7,0.5,1.2c0,0.4-0.1,0.8-0.4,1.1c-0.3,0.3-0.6,0.5-1,0.7c-0.4,0.2-0.7,0.2-1,0.2c0.1,0.5,0.3,1,0.5,1.4
				c0.2,0.4,0.5,0.6,0.9,0.6c0.4,0,0.8-0.3,1.3-0.8c0.4-0.5,0.9-1.2,1.2-2l0.2,0.3c-0.3,0.9-0.8,1.7-1.3,2.4c-0.6,0.7-1.2,1-1.8,1
				C223.3,145.8,223,145.6,222.7,145.3z M222.9,136.6c0.5-0.7,0.7-1.3,0.7-1.9c-0.2,0.1-0.5,0.5-0.9,1.2c-0.4,0.7-0.9,1.5-1.3,2.5
				C221.9,137.9,222.4,137.3,222.9,136.6z"/>
		</g>
	</g>
	<g>
		<g>
			<g id="XMLID_1_">
				<g>
					<path class="st3" d="M54.6,62c-1.3,1.4-2.2,3.3-3.3,5c0.6,0.5,1.2,0.9,1.7,1.4c1.5-1.3,3.1-2.6,4.6-4
						c6.7-6.7,13.3-13.6,20.2-20.2c1.6-1.6,4.5-1.8,6.6-2.9h0c-0.2,0-1.7,5.3-2.6,6.3c-5.6,5.7-10.7,11-16,16.3
						c-3.2,3.2-6.5,6.4-10,9.8c-2.1,2-5.5,2.4-8.3,3.8c-1.8,0.9-4,1.7-5,3.2c-12.8,18.4-20.9,38.5-23.2,60.9
						c-4.6,44.9,9.9,82.8,43,113.2c21.4,19.6,46.9,30.2,76,33c66.5,6.3,123.5-38.7,139.1-96.8c20-74.7-29.2-151.8-105.6-164.1
						c-3.1-0.5-7.2,0.4-9.9,2.1c-11.1,6.9-26.8,6.9-37.6-0.7c-4.6-3.2-8-7.6-7.6-13.3c0.5-6,4.6-9.9,10-12.3
						c12.8-5.8,29.2-1.9,38.5,8.6c1.7,1.9,4.7,3.4,7.3,3.8c59.3,9,108,57.2,118.5,116.4c13.3,74.6-34,146.5-106.5,164.4
						C104,315.6,23.6,263.6,9.1,181.9c-7-39.4,1.6-75.4,24.1-108.4c1.5-2.3,1.5-5.6,2.3-8.4c0.7-2.2,0.9-4.9,2.3-6.5
						c2.5-2.6,5-5.1,7.4-7.7c1-1,1.9-2,2.9-2.9c1.1-1.1,2.2-2.2,3.2-3.3c1.6-1.7,3.3-3.3,4.9-4.9c1-1,2-2,3-3.1c0.3-0.3,0.7-0.7,1-1
						c0.9-0.9,1.9-1.9,2.9-2.9c0.6-0.6,1.2-1.3,1.9-1.9c0.4-0.4,2.9-1.3,3.5-1.5c0.6-0.2,1.9-0.7,2.5-0.8c-0.1,0.1-0.1,0.3-0.2,0.4
						c-0.4,1-0.6,1.9-1,2.8c-0.1,0.3-0.2,0.5-0.3,0.7c-0.1,0.3-0.2,0.6-0.4,0.8c-0.1,0.2-0.2,0.4-0.3,0.6c-0.2,0.3-0.4,0.6-0.7,0.9
						c-6.5,7-13.3,13.6-20,20.4c-1.3,1.4-2.5,2.8-3.8,4.3c0.3,0.6,0.7,1.2,1.1,1.8c1.6-0.9,3.6-1.5,4.8-2.7
						c7.2-7.1,14.2-14.4,21.4-21.5c1.3-1.3,4-1.6,5.8-2.4c-0.6,2-1,4.5-2.3,5.9C68.6,48,61.4,54.9,54.6,62z"/>
					<path class="st3" d="M47.2,140.6C38,198.3,77.7,250,132,259c5.3,0.9,10.6,1,15.9,1.5c4,0.3,7.9,1.3,7.6,6.4
						c-0.3,5-4.4,5.7-8.4,5.5c-44.2-2.6-78.3-22.5-99.1-61.7c-35.7-67.4,1.2-148,75.3-166.3c8.8-2.2,17.9-2.8,26.9-4.1
						c56.9,0.9,105.8,42.8,114.1,99.2c5.2,35.1-4.4,66.3-27.5,93.2c-1.8,2.1-5.3,4.1-7.8,3.9c-4.9-0.3-5.7-5.9-1.6-10.6
						c10.5-11.9,18-25.4,22.5-40.7c17.9-60.9-24-123.8-86.9-131.9C110.8,46.8,56.7,81.4,47.2,140.6z"/>
					<path class="st3" d="M70.8,29.1c-0.3,0.9-0.6,1.9-1,2.8C70.2,31,70.5,30.1,70.8,29.1z"/>
					<path class="st3" d="M69.2,33.5c0.1-0.3,0.3-0.5,0.4-0.8C69.5,33,69.4,33.2,69.2,33.5z"/>
					<path class="st3" d="M68.9,34.1c0.1-0.2,0.2-0.4,0.3-0.6C69.2,33.7,69,33.9,68.9,34.1z"/>
					<path class="st3" d="M81.8,47.6c-5.6,5.7-10.7,11-16,16.3C71,58.6,76.1,53.3,81.8,47.6z"/>
					<path class="st3" d="M60.3,35.7c1-1,1.9-1.9,2.9-2.9C62.2,33.8,61.2,34.8,60.3,35.7z"/>
					<path class="st3" d="M56.2,39.8c1-1,2-2,3-3.1C58.2,37.8,57.2,38.8,56.2,39.8z"/>
					<path class="st3" d="M51.3,44.7c-1.1,1.1-2.1,2.2-3.2,3.3C49.2,46.9,50.3,45.8,51.3,44.7z"/>
					<path class="st3" d="M45.2,50.9c-2.5,2.6-5,5.1-7.4,7.7C40.4,55.9,42.9,53.4,45.2,50.9z"/>
				</g>
				<g>
				</g>
			</g>
		</g>
		<g>
			<g id="XMLID_2_">
				<g>
					<path class="st4" d="M264.3,139.5c2.8,17.1,1.1,31.3-1,41C266.1,167.5,266.5,153.8,264.3,139.5z"/>
					<path class="st3" d="M262.9,182.5c-0.2,0.8-0.4,1.7-0.6,2.5C262.5,184.2,262.7,183.4,262.9,182.5z"/>
					<path class="st3" d="M261.5,188.2c0.3-1,0.6-2.1,0.9-3.2C262.1,186.1,261.8,187.1,261.5,188.2z"/>
					<path class="st3" d="M260.7,190.9c0.3-0.8,0.5-1.7,0.8-2.5C261.2,189.2,260.9,190,260.7,190.9z"/>
					<path class="st4" d="M256.6,201.6c0.3-0.6,0.5-1.1,0.7-1.7C257.1,200.5,256.9,201.1,256.6,201.6z"/>
					<path class="st4" d="M255.4,204.3c0.3-0.6,0.6-1.2,0.8-1.8C256,203.1,255.7,203.7,255.4,204.3z"/>
					<path class="st4" d="M253.1,209c-0.3,0.5-0.6,1.1-0.9,1.6C252.6,210.1,252.8,209.5,253.1,209z"/>
					<path class="st4" d="M250.7,213.3c0.3-0.6,0.6-1.1,0.9-1.7C251.3,212.2,251,212.8,250.7,213.3z"/>
					<path class="st4" d="M248.3,217.3c0.8-1.3,1.7-2.6,2.4-4C250,214.7,249.1,216,248.3,217.3z"/>
					<path class="st4" d="M246.9,219.5c0.3-0.5,0.7-1,1-1.5C247.6,218.5,247.3,219,246.9,219.5z"/>
					<path class="st3" d="M239.8,229.3c0.5-0.6,1-1.2,1.4-1.8C240.7,228.1,240.3,228.7,239.8,229.3z"/>
					<path class="st4" d="M238.7,230.7c0.4-0.5,0.8-0.9,1.1-1.4C239.4,229.7,239.1,230.2,238.7,230.7z"/>
					<path class="st3" d="M264.3,139.5c-7.7-46.3-46.2-85.6-89.6-96.2C220.7,53.9,257.3,91.4,264.3,139.5z"/>
					<path class="st4" d="M150.2,40.3c5.7,0,13.9,0.5,23.4,2.7C166.1,41.4,158.2,40.5,150.2,40.3z"/>
					<path class="st4" d="M114.6,46.9c14.1-5.1,26.8-6.4,35.7-6.6c-9,1.3-18.1,1.9-26.9,4.1C120.3,45.1,117.4,46,114.6,46.9z"/>
					<path class="st4" d="M132,259c5.3,0.9,10.6,1,15.9,1.5c4,0.4,7.9,1.4,7.6,6.4c-0.3,5-4.4,5.7-8.3,5.5
						c-44.2-2.6-78.3-22.5-99.1-61.7c-0.1-0.3-0.3-0.5-0.4-0.8c-9.5-18.2-13.7-37.4-13.3-56c0,0,0-0.1,0-0.1
						C35.9,106,71,63.6,112.4,47.7c0.7-0.3,1.4-0.5,2.2-0.8c2.9-0.9,5.8-1.8,8.8-2.5c8.8-2.2,17.9-2.8,26.9-4.1
						c8,0.1,15.9,1.1,23.4,2.7c0.4,0.1,0.7,0.2,1.1,0.3c43.4,10.6,81.9,50,89.6,96.2c2.1,14.3,1.8,28-1,41c-0.1,0.7-0.3,1.3-0.4,2
						c-0.2,0.9-0.4,1.7-0.6,2.5c-0.3,1.1-0.6,2.1-0.9,3.2c0,0,0,0.1,0,0.1c-0.3,0.8-0.5,1.7-0.8,2.5c-1,3.1-2.1,6.1-3.3,9.1
						c-0.2,0.6-0.5,1.1-0.7,1.7c-0.1,0.3-0.2,0.6-0.4,0.8c-0.3,0.6-0.5,1.2-0.8,1.8c-0.7,1.6-1.5,3.2-2.3,4.7
						c-0.3,0.5-0.6,1.1-0.9,1.6c-0.2,0.4-0.4,0.7-0.6,1.1c-0.3,0.5-0.6,1.1-0.9,1.7c-0.8,1.3-1.6,2.7-2.4,4
						c-0.1,0.2-0.3,0.5-0.4,0.7c-0.3,0.5-0.6,1-1,1.5c-1.8,2.7-3.7,5.4-5.7,8c-0.4,0.6-0.9,1.2-1.4,1.8c-0.4,0.5-0.7,0.9-1.1,1.4
						c-0.6,0.7-1.2,1.4-1.7,2.1c-1.8,2.1-5.3,4.1-7.8,3.9c-4.9-0.3-5.7-5.9-1.6-10.6c10.6-11.9,18-25.4,22.5-40.7
						c17.9-60.9-23.9-123.8-86.9-131.8c-52.3-6.7-106.5,27.9-115.9,87C38,198.3,77.7,250,132,259z"/>
					<path class="st3" d="M114.6,46.9c-0.7,0.3-1.4,0.5-2.2,0.8C71,63.6,35.9,106,34.3,153.8C35.3,106.6,65.9,62.8,114.6,46.9z"/>
					<path class="st3" d="M69.9,29c0.6-0.2,1-0.3,1.1-0.3c-0.9,2.3-1.2,4.6-2.7,6.3C69.4,33.7,69.1,30.2,69.9,29z"/>
					<path class="st3" d="M44.4,51.8C51,45,57.7,38.3,64.4,31.6C57.7,38.3,51,45,44.4,51.8z"/>
					<path class="st4" d="M34.3,153.9c-0.4,18.6,3.8,37.8,13.3,56c-4-7.6-14.1-28.6-13.3-55.6C34.3,154.2,34.3,154,34.3,153.9z"/>
				</g>
				<g>
				</g>
			</g>
		</g>
	</g>
	<g>
		<path class="st1" d="M182.4,195c-0.5,0.6-1,1.2-1.6,1.7c-0.6,0.6-1.3,1.2-2,1.8c-1.4,1.3-3,2.7-4.2,4.7c-1.2,2-1.7,4.5-1.4,6.7
			c0.3,2.2,1.2,4.2,2.4,5.8c1.2,1.6,2.8,3,4.5,3.9c-2.1-3.2-3.4-6.7-3.2-9.9c0.1-1.6,0.6-2.9,1.5-4.1c0.9-1.2,2.1-2.3,3.5-3.5
			c2.7-2.3,6.5-6,6-11.1c-0.2-1.2-0.7-2.5-1.5-3.4c-0.8-0.9-1.7-1.6-2.6-2c-1.8-0.9-3.6-1.3-5.2-2.3c0.9,1.8,2.7,3,3.9,4.2
			c1.3,1.2,1.9,2.5,1.7,3.7C184.1,192.4,183.4,193.7,182.4,195z"/>
		<path class="st5" d="M169.8,216.9c-1.6-2.1-2.7-4.4-3-6.7c-0.3-2.3,0.4-4.5,1.9-6.2c1.6-1.7,3.7-3.4,5.2-5.7
			c0.7-1.1,1.4-2.5,1.4-4c-0.1-1.5-1-2.7-2.1-3.4c0.8,1.1,1.2,2.3,1,3.4c-0.2,1.1-0.9,2-1.7,3c-1.6,1.8-3.6,3.3-5.5,5.3
			c-0.9,1.1-1.7,2.4-2,3.8c-0.3,1.4-0.3,2.9,0,4.3C165.7,213.3,167.5,215.5,169.8,216.9z"/>
		<path class="st5" d="M184.7,205.7c-0.7,1.1-1.2,2.3-1.3,3.6c-0.1,1.3,0.1,2.6,0.5,3.7c0.8,2.3,2.5,4.1,4.4,5.3
			c-1.3-1.9-2.3-3.8-2.7-5.8c-0.4-2-0.1-3.9,1-5.5c1.1-1.6,2.8-3,4.4-4.7c0.8-0.9,1.5-1.9,1.9-3c0.4-1.2,0.4-2.4,0-3.5
			c-0.1,2.3-1.5,3.9-3.2,5.2C188.1,202.3,186.1,203.5,184.7,205.7z"/>
		<path class="st6" d="M179.2,267.1c7.7,0,15-3.6,20.8-10.1c0.4,0,0.9,0,1.3,0c3-0.2,6.4-1.6,9.5-4c6.7-5.2,9.8-12.8,7.2-17.6v0
			c-1.4-2.6-4.1-3.8-7.5-3.6c0.1-0.7,0.1-1.4,0.2-2c0.1-1.2-0.3-2.4-1.1-3.2c-0.7-0.7-1.6-1.1-2.5-1.1h-55.5c-0.9,0-1.8,0.4-2.5,1.1
			c-0.8,0.8-1.2,2-1.1,3.3c0.6,10.1,4.1,19.5,9.9,26.4C163.5,263.2,171.2,267.1,179.2,267.1"/>
		<path class="st1" d="M201.3,251.8l2.3-0.6c1.5-0.4,3.2-1.2,4.8-2.5c1.8-1.4,3.4-3.2,4.3-5c0.7-1.3,1.3-3.1,0.5-4.5
			c-0.9-1.4-3.1-2-5.5-1.4c-0.1,0-0.3,0.1-0.4,0.1c-0.1,0.3-0.1,0.6-0.2,1c-0.9,4-2.4,7.7-4.4,10.9L201.3,251.8z M208.6,239.9
			c1.3-0.4,2.4-0.2,2.7,0.3c0.2,0.4,0.2,1.3-0.5,2.7c-0.8,1.5-2.1,3-3.7,4.3c-0.6,0.4-1.1,0.8-1.6,1.1
			C206.9,245.7,207.9,242.9,208.6,239.9z"/>
	</g>
</g>
</svg>
